<?xml version="1.0" encoding="UTF-8" standalone="no"?>
<!-- Created with Inkscape (http://www.inkscape.org/) -->

<svg
   width="210mm"
   height="297mm"
   viewBox="0 0 210 297"
   version="1.1"
   id="svg1"
   xml:space="preserve"
   inkscape:export-filename="bitmapa3.png"
   inkscape:export-xdpi="4.1050506"
   inkscape:export-ydpi="4.1050506"
   xmlns:inkscape="http://www.inkscape.org/namespaces/inkscape"
   xmlns:sodipodi="http://sodipodi.sourceforge.net/DTD/sodipodi-0.dtd"
   xmlns="http://www.w3.org/2000/svg"
   xmlns:svg="http://www.w3.org/2000/svg"><sodipodi:namedview
     id="namedview1"
     pagecolor="#505050"
     bordercolor="#eeeeee"
     borderopacity="1"
     inkscape:showpageshadow="0"
     inkscape:pageopacity="0"
     inkscape:pagecheckerboard="0"
     inkscape:deskcolor="#505050"
     inkscape:document-units="mm"
     inkscape:zoom="0.68862935"
     inkscape:cx="396.43968"
     inkscape:cy="561.25984"
     inkscape:window-width="1920"
     inkscape:window-height="991"
     inkscape:window-x="-9"
     inkscape:window-y="-9"
     inkscape:window-maximized="1"
     inkscape:current-layer="layer1"><inkscape:page
       x="0"
       y="0"
       width="210"
       height="297"
       id="page2"
       margin="0"
       bleed="0" /></sodipodi:namedview><defs
     id="defs1" /><g
     inkscape:label="Warstwa 1"
     inkscape:groupmode="layer"
     id="layer1"><path
       style="fill:#ffffff;stroke-width:3.09395"
       d="M 6.052158,96.483659 C 4.4101994,94.327694 1.4612257,78.965757 2.180633,76.316197 4.8369123,66.533753 17.447157,57.09765 40.162874,47.894536 c 8.47578,-3.433907 8.47578,-3.433907 10.447706,-8.775719 10.987305,-29.7641447 71.35465,-42.045319 94.32416,-19.189372 1.69932,1.690922 2.57856,1.811986 9.13178,1.257355 36.39799,-3.080555 49.64569,1.750314 54.58488,19.904795 2.49553,9.172533 2.49553,9.172533 -99.65586,32.802269 C 18.671892,94.787116 6.7524701,97.403178 6.052158,96.483659 Z M 196.81651,39.590987 c -2.11591,-7.777202 -23.6621,-10.715813 -51.28394,-6.99443 -5.66435,0.76313 -5.66435,0.76313 -7.00593,-2.058459 C 127.61766,7.5944263 61.982131,20.9419 60.701384,46.364444 c -0.09683,1.921671 -0.183831,3.907065 -0.193337,4.41197 -0.0097,0.516481 -3.638274,2.203221 -8.296106,3.856439 -24.83878,8.816118 -40.229652,19.575478 -38.275655,26.75757 0.80554,2.960838 0.80554,2.960838 92.182804,-18.169935 91.37724,-21.130769 91.37724,-21.130769 90.69742,-23.629501 z m -124.648582,7.06863 c -0.07617,-0.280022 0.853297,-1.832882 2.065532,-3.450778 8.734851,-11.657975 42.40433,-18.227143 51.91587,-10.129183 1.50801,1.283865 1.42031,1.309637 -26.164905,7.688651 -15.222876,3.520254 -27.740314,6.171332 -27.816497,5.89131 z"
       id="path3" /><path
       style="fill:#ffffff;stroke-width:3.20905"
       d="M 75.965371,292.81239 C 45.296643,289.97023 28.375739,283.71881 25.294075,274.092 23.839611,269.54831 23.841918,269.56711 14.089058,182.78952 8.9743651,137.28097 4.5486022,97.937344 4.2540393,95.359272 3.7184584,90.671869 3.7184584,90.671869 100.41884,90.684353 c 53.18521,0.0069 97.23845,0.326793 97.8961,0.710949 0.98196,0.573599 1.0233,2.210861 0.23129,9.158518 -1.22209,10.72169 -14.50477,127.84159 -17.30922,152.62392 -3.08273,27.24174 -5.64729,30.57222 -27.42188,35.61165 -16.58944,3.83939 -57.191125,5.93753 -77.849823,4.023 z m 47.311909,-10.53262 c 19.51542,-1.02138 37.14708,-4.7952 41.9872,-8.98678 2.53358,-2.19409 2.46769,-1.73982 10.64075,-73.38426 3.65705,-32.05776 7.63809,-66.80499 8.84669,-77.21606 1.2086,-10.41108 2.19747,-19.49037 2.19747,-20.17621 0,-1.11056 -9.33604,-1.24698 -85.3383,-1.24698 -46.936065,0 -85.338297,0.17091 -85.338297,0.37977 0,1.47817 17.079633,152.05227 18.118239,159.73061 1.4549,10.75575 1.963874,11.65459 8.106612,14.31628 14.203389,6.15444 43.444627,8.53764 80.779636,6.58363 z m -25.570575,-12.06 c -2.500227,-1.88774 -2.573653,-145.50158 -0.0752,-146.95728 1.66079,-0.9676 6.234955,-1.005 7.846175,-0.0642 3.94373,2.30288 3.91374,143.31388 -0.03,146.95049 -2.0484,1.88827 -5.29337,1.91803 -7.739745,0.0709 z m -38.77765,-9.20079 c -3.323815,-1.23095 -3.623158,-3.06856 -10.883348,-66.81663 -8.705899,-76.44202 -8.675883,-72.12755 -0.498015,-71.57584 5.279874,0.3562 5.370353,0.70054 9.39359,35.74933 1.978818,17.2386 5.178467,45.04165 7.110387,61.78457 4.207907,36.46823 4.227328,37.04275 1.341894,39.70262 -2.323647,2.14198 -3.320609,2.32025 -6.464508,1.15595 z m 78.902275,-1.01595 c -2.93976,-2.33096 -3.21807,1.31947 6.24143,-81.85995 6.31119,-55.49554 6.35,-55.6784 11.81661,-55.6784 6.42937,0 7.5956,4.06163 5.42523,18.89443 -0.4804,3.28306 -3.47155,29.26356 -6.64703,57.73443 -5.93248,53.18958 -6.84571,59.61451 -8.67221,61.01187 -2.54194,1.94469 -5.63122,1.90595 -8.16403,-0.10228 z"
       id="path5" /></g></svg>
